<svg xmlns="http://www.w3.org/2000/svg" width="142" height="143" viewBox="0 0 142 143"><defs><mask id="q2lrb" width="2" height="2" x="-1" y="-1"><path fill="#fff" d="M23 23h94v93H23z"/><path d="M33.84 38.84a5 5 0 0 1 5-5h62a5 5 0 0 1 5 5v62a5 5 0 0 1-5 5h-62a5 5 0 0 1-5-5z"/></mask><filter id="q2lra" width="182" height="183" x="-21" y="-21" filterUnits="userSpaceOnUse"><feOffset dy="2" in="SourceGraphic" result="FeOffset1023Out"/><feGaussianBlur in="FeOffset1023Out" result="FeGaussianBlur1024Out" stdDeviation="13.6 13.6"/></filter><linearGradient id="q2lrc" x1="33.84" x2="105.84" y1="105.84" y2="33.84" gradientUnits="userSpaceOnUse"><stop offset="0" stop-color="#258aff"/><stop offset=".5" stop-color="#53a0fd"/><stop offset="1" stop-color="#51caec"/></linearGradient></defs><g><g transform="rotate(-25 70 69.5)"><g filter="url(#q2lra)"><path fill="none" d="M33.84 38.84a5 5 0 0 1 5-5h62a5 5 0 0 1 5 5v62a5 5 0 0 1-5 5h-62a5 5 0 0 1-5-5z" mask="url(&quot;#q2lrb&quot;)"/><path fill="#258aff" fill-opacity=".21" d="M33.84 38.84a5 5 0 0 1 5-5h62a5 5 0 0 1 5 5v62a5 5 0 0 1-5 5h-62a5 5 0 0 1-5-5z"/></g><path fill="url(#q2lrc)" d="M33.84 38.84a5 5 0 0 1 5-5h62a5 5 0 0 1 5 5v62a5 5 0 0 1-5 5h-62a5 5 0 0 1-5-5z"/></g></g></svg>