<svg xmlns="http://www.w3.org/2000/svg" width="108" height="108" viewBox="0 0 108 108"><defs><mask id="q4i5b" width="2" height="2" x="-1" y="-1"><path fill="#fff" d="M31 9h46v46H31z"/><path d="M54 55c12.703 0 23-10.297 23-23S66.703 9 54 9 31 19.297 31 32s10.297 23 23 23z"/></mask><filter id="q4i5a" width="134" height="156" x="-13" y="-35" filterUnits="userSpaceOnUse"><feOffset dy="22" in="SourceGraphic" result="FeOffset1047Out"/><feGaussianBlur in="FeOffset1047Out" result="FeGaussianBlur1048Out" stdDeviation="13.6 13.6"/></filter></defs><g><g><g filter="url(#q4i5a)"><path fill="none" d="M54 55c12.703 0 23-10.297 23-23S66.703 9 54 9 31 19.297 31 32s10.297 23 23 23z" mask="url(&quot;#q4i5b&quot;)"/><path fill="#f8b934" fill-opacity=".26" d="M54 55c12.703 0 23-10.297 23-23S66.703 9 54 9 31 19.297 31 32s10.297 23 23 23z"/></g><path fill="none" stroke="#000" stroke-miterlimit="20" stroke-width="8" d="M54 55c12.703 0 23-10.297 23-23S66.703 9 54 9 31 19.297 31 32s10.297 23 23 23z"/></g></g></svg>