<svg width="31" height="32" viewBox="0 0 31 32" fill="none" xmlns="http://www.w3.org/2000/svg">
<path d="M17.9565 24.7826L21.8044 28.6304C22.663 29.5068 23.8383 30.0006 25.0652 30.0006C26.2922 30.0006 27.4674 29.5068 28.3261 28.6304V28.6304C29.2025 27.7717 29.6963 26.5965 29.6963 25.3695C29.6963 24.1426 29.2025 22.9673 28.3261 22.1087L25.7826 19.5652" stroke="#258AFF" stroke-width="2" stroke-linecap="round" stroke-linejoin="round"/>
<path d="M12.6412 13.337L8.17383 8.86963" stroke="#258AFF" stroke-width="2" stroke-linecap="round" stroke-linejoin="round"/>
<path fill-rule="evenodd" clip-rule="evenodd" d="M5.43489 9.78262L8.17402 8.86958L9.08706 6.13045L5.43489 2.47827L1.78271 6.13045L5.43489 9.78262V9.78262Z" stroke="#258AFF" stroke-width="2" stroke-linecap="round" stroke-linejoin="round"/>
<path fill-rule="evenodd" clip-rule="evenodd" d="M29.2758 6.42008L25.261 10.4179L20.5719 5.75356L24.5893 1.75443C23.6626 1.35263 22.643 1.21408 21.6427 1.35399C17.7904 1.68488 14.859 4.95332 14.9475 8.81878C14.9377 9.55091 15.0738 10.2777 15.348 10.9566L2.49361 22.2823C1.593 23.0853 1.05623 24.219 1.00585 25.4246C0.955461 26.6302 1.39575 27.8047 2.22621 28.6801V28.6801C3.07691 29.5699 4.26903 30.0511 5.49904 30.0012C6.72904 29.9512 7.87825 29.375 8.65404 28.4192L20.0358 15.6236C21.2523 15.9804 22.5316 16.0694 23.7858 15.8844C26.4791 15.328 28.6434 13.3269 29.4088 10.6853C29.8357 9.28775 29.789 7.78831 29.2758 6.42008Z" stroke="#258AFF" stroke-width="2" stroke-linecap="round" stroke-linejoin="round"/>
</svg>
