<svg xmlns="http://www.w3.org/2000/svg" width="32" height="27" viewBox="0 0 32 27"><g><g><g><path fill="none" stroke="#258aff" stroke-linecap="round" stroke-linejoin="round" stroke-miterlimit="20" stroke-width="2" d="M25.528 25.615v0h5.47v0-5.911c0-.56-.341-1.062-.86-1.27l-5.118-2.05a1.367 1.367 0 0 1-.86-1.267v-1.2a5.445 5.445 0 0 0 2.735-4.711V6.471a5.47 5.47 0 0 0-8.205-4.738"/></g><g><path fill="none" stroke="#258aff" stroke-linecap="round" stroke-linejoin="round" stroke-miterlimit="20" stroke-width="2" d="M19.367 19.846l-5.14-2.036a1.358 1.358 0 0 1-.864-1.257v-1.192a5.394 5.394 0 0 0 2.747-4.676V7.97c0-2.999-2.46-5.43-5.495-5.43-3.034 0-5.494 2.431-5.494 5.43v2.715a5.394 5.394 0 0 0 2.747 4.676v1.192c0 .555-.342 1.054-.864 1.26l-5.14 2.036c-.52.206-.863.703-.864 1.257v4.51h19.23v0-4.51c0-.555-.342-1.054-.863-1.26z"/></g></g></g></svg>